<mxfile>
    <diagram id="8MDQ2ee9JxyfxA_NFh9B" name="第 1 页">
        <mxGraphModel dx="524" dy="575" grid="1" gridSize="10" guides="1" tooltips="1" connect="1" arrows="1" fold="1" page="1" pageScale="1" pageWidth="1169" pageHeight="827" math="0" shadow="0">
            <root>
                <mxCell id="0"/>
                <mxCell id="1" parent="0"/>
                <mxCell id="10" value="Promise" style="rounded=0;whiteSpace=wrap;html=1;align=center;verticalAlign=top;" parent="1" vertex="1">
                    <mxGeometry x="40" y="40" width="200" height="280" as="geometry"/>
                </mxCell>
                <mxCell id="20" style="edgeStyle=orthogonalEdgeStyle;rounded=0;orthogonalLoop=1;jettySize=auto;html=1;entryX=0;entryY=0;entryDx=0;entryDy=0;fontSize=12;" edge="1" parent="1" source="11" target="14">
                    <mxGeometry relative="1" as="geometry">
                        <Array as="points">
                            <mxPoint x="340" y="100"/>
                            <mxPoint x="340" y="100"/>
                        </Array>
                    </mxGeometry>
                </mxCell>
                <mxCell id="11" value="&lt;div style=&quot;color: rgb(248 , 248 , 242) ; background-color: rgb(39 , 40 , 34) ; line-height: 19px&quot;&gt;&lt;font style=&quot;font-size: 14px&quot;&gt;&lt;span style=&quot;color: rgb(166 , 226 , 46)&quot;&gt;Promise&lt;/span&gt;(&lt;span style=&quot;color: rgb(253 , 151 , 31) ; font-style: italic&quot;&gt;executor&lt;/span&gt;)&lt;/font&gt;&lt;/div&gt;" style="rounded=0;whiteSpace=wrap;html=1;fontSize=12;align=left;" vertex="1" parent="1">
                    <mxGeometry x="40" y="80" width="200" height="40" as="geometry"/>
                </mxCell>
                <mxCell id="12" value="&lt;div style=&quot;color: rgb(248 , 248 , 242) ; background-color: rgb(39 , 40 , 34) ; line-height: 19px&quot;&gt;&lt;font style=&quot;font-size: 14px&quot;&gt;&lt;span style=&quot;color: rgb(166 , 226 , 46)&quot;&gt;then&lt;/span&gt;(&lt;span style=&quot;color: rgb(253 , 151 , 31) ; font-style: italic&quot;&gt;onResolved&lt;/span&gt;,&amp;nbsp;&lt;span style=&quot;color: rgb(253 , 151 , 31) ; font-style: italic&quot;&gt;onRejected&lt;/span&gt;)&lt;/font&gt;&lt;/div&gt;" style="rounded=0;whiteSpace=wrap;html=1;fontSize=12;align=left;" vertex="1" parent="1">
                    <mxGeometry x="40" y="160" width="200" height="40" as="geometry"/>
                </mxCell>
                <mxCell id="13" value="&lt;div style=&quot;color: rgb(248 , 248 , 242) ; background-color: rgb(39 , 40 , 34) ; line-height: 19px&quot;&gt;&lt;font style=&quot;font-size: 14px&quot;&gt;&lt;span style=&quot;color: rgb(166 , 226 , 46)&quot;&gt;catch&lt;/span&gt;(&lt;span style=&quot;color: rgb(253 , 151 , 31) ; font-style: italic&quot;&gt;onRejected&lt;/span&gt;)&lt;/font&gt;&lt;/div&gt;" style="rounded=0;whiteSpace=wrap;html=1;fontSize=12;align=left;" vertex="1" parent="1">
                    <mxGeometry x="40" y="240" width="200" height="40" as="geometry"/>
                </mxCell>
                <mxCell id="14" value="" style="rounded=0;whiteSpace=wrap;html=1;fontSize=12;align=left;" vertex="1" parent="1">
                    <mxGeometry x="360" y="100" width="120" height="280" as="geometry"/>
                </mxCell>
                <mxCell id="15" value="&lt;div style=&quot;color: rgb(248 , 248 , 242) ; background-color: rgb(39 , 40 , 34) ; font-family: &amp;#34;jetbrains mono&amp;#34; , , &amp;#34;consolas&amp;#34; , &amp;#34;liberation mono&amp;#34; , &amp;#34;menlo&amp;#34; , monospace , &amp;#34;consolas&amp;#34; , &amp;#34;courier new&amp;#34; , monospace ; font-size: 14px ; line-height: 19px&quot;&gt;&lt;span style=&quot;color: #a6e22e&quot;&gt;resolve&lt;/span&gt;(&lt;span style=&quot;color: #fd971f ; font-style: italic&quot;&gt;value&lt;/span&gt;)&lt;/div&gt;" style="rounded=0;whiteSpace=wrap;html=1;fontSize=12;align=left;" vertex="1" parent="1">
                    <mxGeometry x="360" y="140" width="120" height="40" as="geometry"/>
                </mxCell>
                <mxCell id="17" value="&lt;div style=&quot;color: rgb(248 , 248 , 242) ; background-color: rgb(39 , 40 , 34) ; font-family: &amp;#34;jetbrains mono&amp;#34; , , &amp;#34;consolas&amp;#34; , &amp;#34;liberation mono&amp;#34; , &amp;#34;menlo&amp;#34; , monospace , &amp;#34;consolas&amp;#34; , &amp;#34;courier new&amp;#34; , monospace ; font-size: 14px ; line-height: 19px&quot;&gt;&lt;span style=&quot;color: #a6e22e&quot;&gt;reject&lt;/span&gt;(&lt;span style=&quot;color: #fd971f ; font-style: italic&quot;&gt;reason&lt;/span&gt;)&lt;/div&gt;" style="rounded=0;whiteSpace=wrap;html=1;fontSize=12;align=left;" vertex="1" parent="1">
                    <mxGeometry x="360" y="220" width="120" height="40" as="geometry"/>
                </mxCell>
                <mxCell id="18" value="run" style="rounded=0;whiteSpace=wrap;html=1;fontSize=12;align=left;" vertex="1" parent="1">
                    <mxGeometry x="360" y="300" width="120" height="40" as="geometry"/>
                </mxCell>
            </root>
        </mxGraphModel>
    </diagram>
</mxfile>